<svg xmlns:inkscape="http://www.inkscape.org/namespaces/inkscape" xmlns:sodipodi="http://sodipodi.sourceforge.net/DTD/sodipodi-0.dtd" xmlns="http://www.w3.org/2000/svg" xmlns:svg="http://www.w3.org/2000/svg" version="1.1" x="0%" y="0%" width="100%" height="100%" viewBox="0 0 24.0 24.0" enable-background="new 0 0 24.0 24.0" xml:space="preserve" id="svg10" sodipodi:docname="Proyecto_1.svg" inkscape:version="1.1.2 (b8e25be833, 2022-02-05)"><defs id="defs14"/><sodipodi:namedview id="namedview12" pagecolor="#ffffff" bordercolor="#666666" borderopacity="1.0" inkscape:pageshadow="2" inkscape:pageopacity="0.0" inkscape:pagecheckerboard="0" showgrid="false" inkscape:zoom="9.7708333" inkscape:cx="12.946695" inkscape:cy="13.714286" inkscape:window-width="1366" inkscape:window-height="697" inkscape:window-x="-8" inkscape:window-y="-8" inkscape:window-maximized="1" inkscape:current-layer="g835"/>
	<g id="g835" transform="translate(-4.9522507,-4.205307)"><path fill="#ff8d06" stroke="#000000" fill-opacity="1" stroke-opacity="1" fill-rule="nonzero" stroke-width="0" stroke-linejoin="miter" stroke-linecap="square" d="m 5.8979417,12.932523 h 8.1860063 l 2.046502,2.047598 a 2.8941904,2.8957426 0 0 1 -4.093003,4.095198" id="path2" style="fill:#ffb55b;fill-opacity:1"/><path fill="#ff6087" stroke="#000000" fill-opacity="1" stroke-opacity="1" fill-rule="nonzero" stroke-width="0" stroke-linejoin="miter" stroke-linecap="square" d="m 22.269955,25.218118 a 8.6825712,8.6872278 0 0 0 0,-12.285595 2.8941904,2.8957426 0 0 0 -4.093003,0 8.6825712,8.6872278 0 0 1 -12.2790103,0 2.8941907,2.8957429 0 1 1 4.0930033,-4.0951994 2.8941904,2.8957426 0 0 0 4.093003,0 8.6825716,8.6872282 0 1 1 12.279011,12.2855954" id="path4"/><path fill="#1eb2ff" stroke="#000000" fill-opacity="1" stroke-opacity="1" fill-rule="nonzero" stroke-width="0" stroke-linejoin="miter" stroke-linecap="square" d="m 22.269955,17.027721 a 2.8941904,2.8957426 0 0 0 0,-4.095198 8.6825712,8.6872278 0 0 1 0,12.285595 2.8941905,2.8957427 0 0 1 -4.093003,-4.095199" id="path6"/><path fill="#9253ff" stroke="#000000" fill-opacity="1" stroke-opacity="1" fill-rule="nonzero" stroke-width="0" stroke-linejoin="miter" stroke-linecap="square" d="m 9.990945,21.122919 c 1.135808,1.136417 1.125576,2.969018 0,4.095199 -1.1255759,1.126178 -2.9571949,1.136416 -4.0930033,0 -1.1255759,-1.126181 -1.1255759,-2.96902 0,-4.095199 1.1255759,-1.12618 2.9674274,-1.12618 4.0930033,0 z" id="path8"/></g>
</svg>