<svg xmlns="http://www.w3.org/2000/svg" xmlns:svg="http://www.w3.org/2000/svg" version="1.1" x="0%" y="0%" width="100%" height="100%" viewBox="0 0 24.0 24.0" enable-background="new 0 0 24.0 24.0" xml:space="preserve" id="svg32">
<defs id="defs22">
	<linearGradient id="fillGrad0" x1="9.9999995" y1="20" x2="14" y2="20" gradientUnits="userSpaceOnUse">
   		<stop offset="0.000%" style="stop-color:rgb(143,0,255);stop-opacity:1.000" id="stop2"/>
		<stop offset="100.000%" style="stop-color:rgb(0,0,255);stop-opacity:1.000" id="stop4"/>
	</linearGradient>

	<linearGradient id="fillGrad3" x1="4.2426406" y1="19.798988" x2="9.899496" y2="19.798988" gradientTransform="scale(1.4142134,0.70710686)" gradientUnits="userSpaceOnUse">
   		<stop offset="0.000%" style="stop-color:rgb(231,176,0);stop-opacity:1.000" id="stop7"/>
		<stop offset="100.000%" style="stop-color:rgb(255,143,57);stop-opacity:1.000" id="stop9"/>
	</linearGradient>

	<linearGradient id="fillGrad14" x1="3.4641016" y1="11.547006" x2="17.320509" y2="11.547006" gradientTransform="scale(1.1547005,0.86602541)" gradientUnits="userSpaceOnUse">
   		<stop offset="0.000%" style="stop-color:rgb(255,58,58);stop-opacity:1.000" id="stop12"/>
		<stop offset="100.000%" style="stop-color:rgb(255,64,138);stop-opacity:1.000" id="stop14"/>
	</linearGradient>

	<linearGradient id="fillGrad19" x1="20.783663" y1="13.855644" x2="20.783663" y2="6.9274408" gradientTransform="scale(0.86602541,1.1547005)" gradientUnits="userSpaceOnUse">
   		<stop offset="0.000%" style="stop-color:rgb(0,148,255);stop-opacity:1.000" id="stop17"/>
		<stop offset="100.000%" style="stop-color:rgb(0,228,203);stop-opacity:1.000" id="stop19"/>
	</linearGradient>

</defs>
	
	
	
	<g id="g855" transform="matrix(1.0278906,1.0280302,-1.0278906,1.0280302,11.174675,-13.903348)" style="stroke-width:0.687874"><path fill="url(#fillGrad0)" stroke="#000000" fill-opacity="1" stroke-opacity="1" fill-rule="nonzero" stroke-width="0" stroke-linejoin="miter" stroke-linecap="square" d="m 12,18 c 1.11,0 2,0.9 2,2 0,1.1 -0.89,2 -2,2 -1.1,0 -2,-0.9 -2,-2 0,-1.1 0.9,-2 2,-2 z" id="path24" style="fill:url(#fillGrad0)"/><path fill="url(#fillGrad3)" stroke="#000000" fill-opacity="1" stroke-opacity="1" fill-rule="nonzero" stroke-width="0" stroke-linejoin="miter" stroke-linecap="square" d="m 6,16 4,-4 h 2 a 2,2 0 0 1 0,4" id="path26" style="fill:url(#fillGrad3)"/><path fill="url(#fillGrad14)" stroke="#000000" fill-opacity="1" stroke-opacity="1" fill-rule="nonzero" stroke-width="0" stroke-linejoin="miter" stroke-linecap="square" d="m 20,14 a 6,6 0 0 0 -6,-6 2,2 0 0 0 -2,2 6,6 0 0 1 -6,6 2,2 0 1 1 0,-4 2,2 0 0 0 2,-2 6,6 0 1 1 12,0" id="path28" style="fill:url(#fillGrad14)"/><path fill="url(#fillGrad19)" stroke="#000000" fill-opacity="1" stroke-opacity="1" fill-rule="nonzero" stroke-width="0" stroke-linejoin="miter" stroke-linecap="square" d="m 16,10 a 2,2 0 0 0 -2,-2 6,6 0 0 1 6,6 2,2 0 0 1 -4,0" id="path30" style="fill:url(#fillGrad19)"/></g>
</svg>